# xmcd CD database file
#
# Track frame offsets:
#	150
#	26965
#	51843
#	76038
#	119170
#	142925
#	166203
#	190653
#	214185
#
# Disc length: 3232 seconds
#
# Revision: 0
# Processed by: cddbd v1.5.2PL0 Copyright (c) Steve Scherf et al.
# Submitted via: CDex 1.70beta2
#
DISCID=790c9e09
DTITLE=Rolf Ericson - I Love You So...
DYEAR=1997
DGENRE=Jazz
TTITLE0=Soon
TTITLE1=You Leave Me Breathless
TTITLE2=Brownie Speaks
TTITLE3=I Had The Craziest Dream
TTITLE4=Strollin'
TTITLE5=Love Come Back To Me
TTITLE6=I Love You So...
TTITLE7=Ashes
TTITLE8=Blue Monk
EXTD=YEAR: 1997
EXTT0=
EXTT1=
EXTT2=
EXTT3=
EXTT4=
EXTT5=
EXTT6=
EXTT7=
EXTT8=
PLAYORDER=
